<?xml version="1.0" encoding="iso-8859-1"?>
<!-- Generator: Adobe Illustrator 19.0.0, SVG Export Plug-In . SVG Version: 6.00 Build 0)  -->
<svg version="1.1" id="Layer_1" xmlns="http://www.w3.org/2000/svg" xmlns:xlink="http://www.w3.org/1999/xlink" x="0px" y="0px"
	 viewBox="0 0 489.143 489.143" style="enable-background:new 0 0 489.143 489.143;" xml:space="preserve">
<g>
	<path style="fill:#933EC5;" d="M448.094,41.048c4.787,4.787,9.118,9.906,12.987,15.298l28.061-28.062L460.857,0l-28.061,28.061
		C438.189,31.931,443.308,36.262,448.094,41.048z"/>
	<path style="fill:#A258CD;" d="M272.995,145.699l20.064-56.63l-38.184-33.948L65.913,195.406
		c-6.419,4.766-12.547,10.056-18.214,15.723C16.94,241.888,0,282.785,0,326.286s16.94,84.397,47.699,115.157l284.26-284.259
		L272.995,145.699z"/>
	<path style="fill:#933EC5;" d="M343.443,216.148l-11.484-58.964c-0.001,0-284.26,284.259-284.26,284.259
		c30.76,30.76,71.657,47.699,115.157,47.7c43.5,0,84.398-16.94,115.157-47.7c5.669-5.67,10.959-11.798,15.722-18.214
		l140.285-188.962l-33.947-38.183L343.443,216.148z"/>
	<path style="fill:#B6E892;" d="M272.995,145.699l58.964,11.484c0.001,0,116.135-116.135,116.135-116.135
		c-4.786-4.786-9.905-9.117-15.298-12.986C412.302,13.356,387.8,5.418,362.074,5.418c-26.33,0-51.376,8.261-72.431,23.891
		l-34.769,25.812l38.184,33.948L272.995,145.699z"/>
	<path style="fill:#91DC5A;" d="M448.095,41.048L331.959,157.183l11.484,58.964l56.63-20.064l33.947,38.183
		c0,0.001,25.813-34.768,25.813-34.768c15.63-21.055,23.891-46.101,23.891-72.431c0-25.726-7.938-50.228-22.643-70.722
		C457.212,50.954,452.881,45.835,448.095,41.048z"/>
</g>
<g>
</g>
<g>
</g>
<g>
</g>
<g>
</g>
<g>
</g>
<g>
</g>
<g>
</g>
<g>
</g>
<g>
</g>
<g>
</g>
<g>
</g>
<g>
</g>
<g>
</g>
<g>
</g>
<g>
</g>
</svg>
