<?xml version="1.0" encoding="iso-8859-1"?>
<!-- Generator: Adobe Illustrator 19.0.0, SVG Export Plug-In . SVG Version: 6.00 Build 0)  -->
<svg version="1.1" id="Layer_1" xmlns="http://www.w3.org/2000/svg" xmlns:xlink="http://www.w3.org/1999/xlink" x="0px" y="0px"
	 viewBox="0 0 492.814 492.814" style="enable-background:new 0 0 492.814 492.814;" xml:space="preserve">
<g>
	<path style="fill:#47821C;" d="M454.739,38.03c4.788,4.788,9.135,9.889,13.042,15.24l17.014-17.014L456.511,7.972l-16.995,16.995
		C444.866,28.892,449.957,33.248,454.739,38.03z"/>
	<path style="fill:#B6E892;" d="M127.101,365.666c-20.493-20.493-31.779-47.74-31.779-76.721s11.286-56.228,31.779-76.721
		c20.493-20.493,47.74-31.779,76.721-31.779s56.229,11.286,76.721,31.779c0,0,174.195-174.195,174.195-174.195
		c-4.781-4.781-9.872-9.137-15.223-13.062C417.419,8.759,390.846,0,362.923,0c-19.499,0-39.044,4.464-56.525,12.909l-191.292,92.432
		c-20.538,9.924-39.19,23.195-55.441,39.445c-79.489,79.489-79.489,208.827,0,288.315L127.101,365.666z"/>
	<path style="fill:#91DC5A;" d="M467.782,53.27c-3.908-5.351-8.254-10.452-13.042-15.24
		c-0.001-0.001-174.196,174.194-174.196,174.194c20.493,20.493,31.779,47.74,31.779,76.721c0,28.981-11.286,56.228-31.778,76.721
		c-20.493,20.493-47.74,31.779-76.722,31.779c-28.981,0-56.227-11.285-76.72-31.777c-0.001-0.001-67.438,67.435-67.438,67.435
		c38.507,38.506,89.703,59.712,144.158,59.712c54.456,0,105.651-21.207,144.157-59.712c16.249-16.249,29.52-34.901,39.446-55.442
		l92.433-191.292C500.921,142.771,495.729,91.542,467.782,53.27z"/>
	<path style="fill:#FF5023;" d="M280.543,212.223c-20.492-20.493-47.739-31.779-76.721-31.779s-56.228,11.286-76.721,31.779
		c-20.493,20.493-31.779,47.74-31.779,76.721s11.286,56.228,31.779,76.721L280.543,212.223z"/>
	<path style="fill:#CD2A00;" d="M280.543,212.223L127.101,365.666c20.494,20.494,47.74,31.779,76.721,31.779
		c28.981,0,56.229-11.286,76.722-31.779c20.492-20.493,31.778-47.74,31.778-76.721C312.322,259.963,301.036,232.717,280.543,212.223
		z"/>
</g>
<g>
</g>
<g>
</g>
<g>
</g>
<g>
</g>
<g>
</g>
<g>
</g>
<g>
</g>
<g>
</g>
<g>
</g>
<g>
</g>
<g>
</g>
<g>
</g>
<g>
</g>
<g>
</g>
<g>
</g>
</svg>
