<?xml version="1.0" encoding="iso-8859-1"?>
<!-- Generator: Adobe Illustrator 19.0.0, SVG Export Plug-In . SVG Version: 6.00 Build 0)  -->
<svg version="1.1" id="Layer_1" xmlns="http://www.w3.org/2000/svg" xmlns:xlink="http://www.w3.org/1999/xlink" x="0px" y="0px"
	 viewBox="0 0 495.006 495.006" style="enable-background:new 0 0 495.006 495.006;" xml:space="preserve">
<g>
	<path style="fill:#91DC5A;" d="M395.343,282.623c-3.339-44.325-15.824-87.719-36.609-126.757
		c-22.111-41.529-53.526-78.114-91.23-106.375V0.003h-40V49.49c-37.705,28.261-69.119,64.847-91.23,106.375
		c-20.785,39.039-33.27,82.433-36.609,126.757c6.476,0.399,12.86,1.456,19.088,3.171c6.854-1.889,13.899-2.977,21.047-3.27
		c6.74-77.902,45.733-149.834,107.705-197.993c61.972,48.159,100.965,120.091,107.705,197.993c7.148,0.292,14.192,1.381,21.047,3.27
		C382.482,284.079,388.867,283.022,395.343,282.623z"/>
	<path style="fill:#D80027;" d="M118.751,285.794c-6.227-1.716-12.612-2.772-19.088-3.171c-1.942-0.12-3.891-0.187-5.848-0.187
		C42.085,282.437,0,324.522,0,376.252c0,65.479,53.271,118.751,118.751,118.751V285.794z"/>
	<path style="fill:#A5001E;" d="M118.751,495.003c65.48,0,118.751-53.271,118.751-118.751c0-51.73-42.085-93.815-93.816-93.815
		c-1.3,0-2.595,0.036-3.889,0.088c-7.148,0.292-14.192,1.381-21.047,3.27V495.003z"/>
	<path style="fill:#D80027;" d="M376.255,285.794c-6.854-1.889-13.899-2.977-21.047-3.27c-1.293-0.053-2.589-0.088-3.889-0.088
		c-51.73,0-93.816,42.085-93.816,93.815c0,65.479,53.271,118.751,118.751,118.751V285.794z"/>
	<path style="fill:#A5001E;" d="M401.19,282.437c-1.957,0-3.906,0.067-5.848,0.187c-6.476,0.399-12.86,1.456-19.088,3.171v209.208
		c65.479,0,118.751-53.271,118.751-118.751C495.006,324.522,452.92,282.437,401.19,282.437z"/>
</g>
<g>
</g>
<g>
</g>
<g>
</g>
<g>
</g>
<g>
</g>
<g>
</g>
<g>
</g>
<g>
</g>
<g>
</g>
<g>
</g>
<g>
</g>
<g>
</g>
<g>
</g>
<g>
</g>
<g>
</g>
</svg>
